<?xml version="1.0" encoding="UTF-8" standalone="no"?>
<svg width="171px" height="333px" viewBox="0 0 171 333" version="1.1" xmlns="http://www.w3.org/2000/svg" xmlns:xlink="http://www.w3.org/1999/xlink" xmlns:sketch="http://www.bohemiancoding.com/sketch/ns">
    <!-- Generator: Sketch 3.2.2 (9983) - http://www.bohemiancoding.com/sketch -->
    <title>Sign</title>
    <desc>Created with Sketch.</desc>
    <defs>
        <radialGradient cx="50%" cy="53.138146%" fx="50%" fy="53.138146%" r="64.7798978%" id="radialGradient-1">
            <stop stop-color="#F4F4F4" offset="0%"></stop>
            <stop stop-color="#6D6D6D" offset="100%"></stop>
        </radialGradient>
    </defs>
    <g id="Frontend" stroke="none" stroke-width="1" fill="none" fill-rule="evenodd" sketch:type="MSPage">
        <g id="ERROR-SCREEN" sketch:type="MSArtboardGroup" transform="translate(-811.000000, -212.000000)">
            <g id="404" sketch:type="MSLayerGroup" transform="translate(272.000000, 221.000000)">
                <g id="Sign" transform="translate(534.000000, 0.000000)" sketch:type="MSShapeGroup">
                    <rect id="Rectangle-391" stroke="#212121" stroke-width="7" fill="url(#radialGradient-1)" x="83" y="159" width="16" height="158" rx="8"></rect>
                    <polygon id="Polygon-1" stroke-opacity="0.870000005" stroke="#000000" stroke-width="7" fill="#FFC107" points="90.5 0 168.875299 45.25 168.875299 135.75 90.5 181 12.124701 135.75 12.124701 45.25 "></polygon>
                    <path d="M79.609375,110.90625 C79.609375,107.578108 79.8085918,104.683606 80.2070312,102.222656 C80.6054707,99.7617064 81.2617142,97.5117289 82.1757812,95.4726562 C83.0898483,93.4335836 84.2734302,91.5000091 85.7265625,89.671875 C87.1796948,87.8437409 88.960927,85.8984478 91.0703125,83.8359375 C92.6640705,82.2890548 94.1523368,80.8242257 95.5351562,79.4414062 C96.9179757,78.0585868 98.1367135,76.6406323 99.1914062,75.1875 C100.246099,73.7343677 101.078122,72.1875082 101.6875,70.546875 C102.296878,68.9062418 102.601562,67.0781351 102.601562,65.0625 C102.601562,60.656228 101.51173,57.2929804 99.3320312,54.9726562 C97.1523329,52.6523321 93.9531461,51.4921875 89.734375,51.4921875 C88.0468666,51.4921875 86.406258,51.7265602 84.8125,52.1953125 C83.218742,52.6640648 81.7890688,53.4140573 80.5234375,54.4453125 C79.2578062,55.4765677 78.2382851,56.7890545 77.4648438,58.3828125 C76.6914024,59.9765705 76.3046875,61.8984262 76.3046875,64.1484375 L59.21875,64.1484375 C59.2656252,59.7421655 60.0742109,55.863298 61.6445312,52.5117188 C63.2148516,49.1601395 65.37108,46.3476676 68.1132812,44.0742188 C70.8554825,41.8007699 74.0663879,40.0898495 77.7460938,38.9414062 C81.4257996,37.792963 85.4218534,37.21875 89.734375,37.21875 C94.4687737,37.21875 98.6874815,37.8281189 102.390625,39.046875 C106.093769,40.2656311 109.234362,42.0468633 111.8125,44.390625 C114.390638,46.7343867 116.34765,49.5937331 117.683594,52.96875 C119.019538,56.3437669 119.6875,60.1640412 119.6875,64.4296875 C119.6875,67.523453 119.195317,70.4062366 118.210938,73.078125 C117.226558,75.7500134 115.914071,78.2578008 114.273438,80.6015625 C112.632804,82.9453242 110.757823,85.1953017 108.648438,87.3515625 C106.539052,89.5078233 104.359386,91.6406145 102.109375,93.75 C99.5312371,96.0937617 97.8085981,98.6601423 96.9414062,101.449219 C96.0742144,104.238295 95.6171877,107.390607 95.5703125,110.90625 L79.609375,110.90625 Z M78.4140625,132.773438 C78.4140625,131.460931 78.6249979,130.242193 79.046875,129.117188 C79.4687521,127.992182 80.0898396,127.007817 80.9101562,126.164062 C81.7304729,125.320308 82.7382753,124.664065 83.9335938,124.195312 C85.1289122,123.72656 86.4999923,123.492188 88.046875,123.492188 C89.5937577,123.492188 90.9648378,123.72656 92.1601562,124.195312 C93.3554747,124.664065 94.3632771,125.320308 95.1835938,126.164062 C96.0039104,127.007817 96.6367165,127.992182 97.0820312,129.117188 C97.527346,130.242193 97.75,131.460931 97.75,132.773438 C97.75,135.351575 96.9062584,137.507804 95.21875,139.242188 C93.5312416,140.976571 91.1406405,141.84375 88.046875,141.84375 C84.9531095,141.84375 82.5742271,140.976571 80.9101562,139.242188 C79.2460854,137.507804 78.4140625,135.351575 78.4140625,132.773438 L78.4140625,132.773438 Z" id="?" fill-opacity="0.870000005" fill="#000000"></path>
                </g>
            </g>
        </g>
    </g>
</svg>