<?xml version="1.0" encoding="UTF-8" standalone="no"?>
<svg width="48px" height="26px" viewBox="0 0 48 26" version="1.1" xmlns="http://www.w3.org/2000/svg" xmlns:xlink="http://www.w3.org/1999/xlink" xmlns:sketch="http://www.bohemiancoding.com/sketch/ns">
    <!-- Generator: Sketch 3.1.1 (8761) - http://www.bohemiancoding.com/sketch -->
    <title>bicycle</title>
    <desc>Created with Sketch.</desc>
    <defs></defs>
    <g id="Frontend" stroke="none" stroke-width="1" fill="none" fill-rule="evenodd" sketch:type="MSPage">
        <g id="TOP-(BOOKINGS)" sketch:type="MSArtboardGroup" transform="translate(-232.000000, -692.000000)" fill="#FFFFFF">
            <g id="blurbs" sketch:type="MSLayerGroup" transform="translate(0.000000, 625.000000)">
                <g id="blurb-1" transform="translate(156.000000, 48.000000)" sketch:type="MSShapeGroup">
                    <path d="M103.365603,21.740968 L100.297893,23.7623681 C99.9124641,24.360519 96.5155328,26.4383023 94.9732154,25.3922714 C85.2611982,18.8054017 84.635859,19.8577871 83.5911361,21.8681079 L81.8713537,21.6978934 C81.7059924,21.6638053 81.5300629,21.6522282 81.3373486,21.6522282 C80.4900274,21.6522282 79.7303601,22.0966607 79.2958204,22.7739219 L78.0630706,24.7214497 L85.4918959,27.2491196 C89.4325924,28.592708 92.277304,32.4356666 92.277304,36.9623182 L99.124816,41.1052592 C106.403784,40.9970775 105.610759,39.2086063 109.164733,32.2452295 C110.638948,29.3567846 111.299399,27.3089797 114.364022,27.3089797 L119.765151,26.7422993 C119.765151,25.9055312 119.034926,23.2829997 118.292043,23.061105 L118.292099,23.0611102 C118.292099,23.0611102 115.521787,21.9652013 113.2087,21.2175127 C113.2087,21.2175127 109.990869,18.6572532 106.398425,19.7425562 L105.169148,20.5525616 C104.602797,20.0280852 103.854549,19.7100588 103.023878,19.7100588 L99.6868054,19.7100588 C99.1528005,19.7100588 98.7294508,20.1544912 98.7294508,20.7011881 C98.7294508,21.2530304 99.1528005,21.6916742 99.6868054,21.6916742 L103.023878,21.6858857 C103.136618,21.6858857 103.252276,21.7051842 103.365603,21.740968 Z M109.72698,37.0909629 C109.72698,33.0097898 112.924764,29.7129331 116.86349,29.7129331 C120.802216,29.7129331 124,33.0097898 124,37.0909629 C124,41.1659978 120.802216,44.4744488 116.86349,44.4744488 C112.924764,44.4744488 109.72698,41.1721359 109.72698,37.0909629 Z M116.869423,39.8558485 C118.351966,39.8558485 119.541824,38.6125366 119.541824,37.0909629 C119.541824,35.563251 118.351966,34.3315333 116.869423,34.3315333 C115.404678,34.3315333 114.214161,35.563251 114.214161,37.0909629 C114.214161,38.6125366 115.404678,39.8558485 116.869423,39.8558485 Z M76,37.0687355 C76,33.0111615 79.1820241,29.7134559 83.1098445,29.7134559 C87.0424417,29.7134559 90.2137178,33.0111615 90.2137178,37.0687355 C90.2137178,41.1318696 87.0424417,44.4240152 83.1098445,44.4240152 C79.1820241,44.4184552 76,41.1263096 76,37.0687355 Z M83.1253694,39.8141465 C84.5841206,39.8141465 85.7789471,38.5890903 85.7789471,37.0687355 C85.7789471,35.5428208 84.5841206,34.3177646 83.1253694,34.3177646 C81.6504962,34.3177646 80.4664178,35.5428208 80.4664178,37.0687355 C80.4664178,38.5890903 81.6504962,39.8141465 83.1253694,39.8141465 Z" id="bicycle"></path>
                </g>
            </g>
        </g>
    </g>
</svg>