<?xml version="1.0" encoding="UTF-8" standalone="no"?>
<svg width="28px" height="34px" viewBox="0 0 28 34" version="1.1" xmlns="http://www.w3.org/2000/svg" xmlns:xlink="http://www.w3.org/1999/xlink" xmlns:sketch="http://www.bohemiancoding.com/sketch/ns">
    <!-- Generator: Sketch 3.2.2 (9983) - http://www.bohemiancoding.com/sketch -->
    <title>Bus</title>
    <desc>Created with Sketch.</desc>
    <defs></defs>
    <g id="Frontend" stroke="none" stroke-width="1" fill="none" fill-rule="evenodd" sketch:type="MSPage">
        <g id="TOP-(BOOKINGS)" sketch:type="MSArtboardGroup" transform="translate(-754.000000, -688.000000)" fill="#FFFFFF">
            <g id="blurbs" sketch:type="MSLayerGroup" transform="translate(0.000000, 625.000000)">
                <g id="blurb-3" transform="translate(672.000000, 48.000000)" sketch:type="MSShapeGroup">
                    <path d="M106.485088,31.6416067 L85.5594312,31.6416067 C84.9507733,31.6416067 84.44437,31.1352033 84.44437,30.5265211 C84.44437,30.4242666 84.4662816,30.3268813 84.4845414,30.2343653 L85.5996026,21.9724436 C85.6921186,21.4563017 86.148612,21.0570222 86.6891001,21.0570222 L105.348115,21.0570222 C105.89469,21.0570222 106.346314,21.4563017 106.4437,21.9724436 L107.553892,30.2343653 C107.573369,30.3268813 107.594063,30.4242666 107.594063,30.5265211 C107.59528,31.1352033 107.093746,31.6416067 106.485088,31.6416067 L106.485088,31.6416067 Z M105.64514,40.6411974 C104.467996,40.6411974 103.507534,39.6929085 103.507534,38.5084603 C103.507534,37.3337506 104.467996,36.3805924 105.64514,36.3805924 C106.814981,36.3805924 107.768139,37.3337506 107.768139,38.5084603 C107.769356,39.6929085 106.814981,40.6411974 105.64514,40.6411974 L105.64514,40.6411974 Z M86.3689461,40.6411974 C85.2015403,40.6411974 84.2410782,39.6929085 84.2410782,38.5084603 C84.2410782,37.3337506 85.2015403,36.3805924 86.3689461,36.3805924 C87.548525,36.3805924 88.5016832,37.3337506 88.5016832,38.5084603 C88.5016832,39.6929085 87.5473077,40.6411974 86.3689461,40.6411974 L86.3689461,40.6411974 Z M89.6751756,17.3177691 L102.340128,17.3177691 C103.585442,17.3177691 103.585442,19.6744924 102.340128,19.6744924 L89.6751756,19.6744924 C88.4298616,19.673275 88.4298616,17.3177691 89.6751756,17.3177691 L89.6751756,17.3177691 Z M105.245861,16.6592013 C103.432061,15.9008136 99.181194,15 96.0088693,15 C92.8353272,15 88.5832434,15.9008136 86.7670083,16.6592013 C84.9507733,17.4151544 83.7431961,18.1711074 83.3646109,20.0588233 L82,30.5386943 L82,44.9751822 L84.351854,44.9751822 L84.351854,47.2381721 C84.351854,49.9941749 88.3933421,49.9941749 88.3933421,47.2381721 L88.3933421,44.9751822 L103.629266,44.9751822 L103.629266,47.2381721 C103.629266,49.9941749 107.661015,49.9941749 107.661015,47.2381721 L107.661015,44.9751822 L110.008,44.9751822 L110.008,30.5386943 L108.650693,20.0588233 C108.27089,18.1711074 107.062096,17.4151544 105.245861,16.6592013 Z" id="Bus"></path>
                </g>
            </g>
        </g>
    </g>
</svg>