<?xml version="1.0" encoding="UTF-8" standalone="no"?>
<svg width="36px" height="41px" viewBox="0 0 36 41" version="1.1" xmlns="http://www.w3.org/2000/svg" xmlns:xlink="http://www.w3.org/1999/xlink" xmlns:sketch="http://www.bohemiancoding.com/sketch/ns">
    <!-- Generator: Sketch 3.1.1 (8761) - http://www.bohemiancoding.com/sketch -->
    <title>graphic</title>
    <desc>Created with Sketch.</desc>
    <defs></defs>
    <g id="Frontend" stroke="none" stroke-width="1" fill="none" fill-rule="evenodd" sketch:type="MSPage">
        <g id="TOP-(BOOKINGS)" sketch:type="MSArtboardGroup" transform="translate(-494.000000, -685.000000)" fill="#FFFFFF">
            <g id="blurbs" sketch:type="MSLayerGroup" transform="translate(0.000000, 625.000000)">
                <g id="blurb-2" transform="translate(400.000000, 48.000000)" sketch:type="MSShapeGroup">
                    <g id="graphic" transform="translate(94.000000, 12.000000)">
                        <path d="M8.68540487,7.61375318 L10.0627367,8.77685908 L15.5530885,1.83145254 L14.1680841,0.671830859 L11.5140119,2.00349439 L10.1316465,0.843615116 L7.83198717,3.67821125 L9.21007832,4.84941085 L8.68540487,7.61375318 Z" id="Fill-1"></path>
                        <path d="M18.9722522,20.0831536 C19.0020398,19.3774702 18.4832257,18.7799739 17.7886195,18.7390173 C17.0981814,18.7139906 16.5215841,19.2484862 16.4867655,19.9573691 C16.4578673,20.6725019 16.9745177,21.2470593 17.6608274,21.284735 C18.352354,21.3355341 18.9404336,20.7672402 18.9722522,20.0831536" id="Fill-2"></path>
                        <path d="M17.1094248,16.6100503 C17.1432611,15.9475605 16.6473186,15.3805138 15.9880752,15.3469866 C15.3288451,15.3134731 14.7847035,15.8243519 14.7566549,16.4917224 C14.7238274,17.1650039 15.2230354,17.7099522 15.8727212,17.7553013 C16.5218894,17.7952546 17.0785354,17.261369 17.1094248,16.6100503" id="Fill-3"></path>
                        <path d="M15.247885,13.1436444 C15.2793451,12.5127159 14.8018009,11.9711027 14.1905841,11.9519462 C13.5706726,11.9254689 13.0605,12.4003396 13.028781,13.0285703 C12.9988354,13.6756998 13.4622743,14.1805592 14.0815619,14.2288909 C14.695115,14.2587169 15.2193717,13.7634018 15.247885,13.1436444" id="Fill-4"></path>
                        <path d="M11.2978898,9.57592499 C11.2632571,10.173123 11.7135916,10.6520338 12.2883863,10.6951867 C12.8625491,10.7315879 13.3568628,10.2582763 13.3882434,9.68319016 C13.4114867,9.09255384 12.9705133,8.58549812 12.3977442,8.56392849 C11.8014996,8.53377711 11.3229637,8.99056244 11.2978898,9.57592499" id="Fill-5"></path>
                        <path d="M21.1689425,17.0679609 C20.4894956,17.1031421 19.9067257,16.5772824 19.8768053,15.8747308 C19.8497655,15.1746059 20.3754823,14.5810954 21.0559513,14.5567059 C21.7354115,14.5215112 22.3138938,15.0586911 22.3491106,15.7607276 C22.3842611,16.4477833 21.8533805,17.0431782 21.1689425,17.0679609" id="Fill-6"></path>
                        <path d="M18.7445841,14.3253509 C18.1021327,14.3569258 17.5500265,13.8593873 17.5233982,13.1919219 C17.4972611,12.5298523 17.9907212,11.976268 18.638469,11.9441779 C19.2858319,11.9080478 19.8287522,12.4214618 19.8596549,13.0776205 C19.8999425,13.734213 19.3934735,14.3054217 18.7445841,14.3253509" id="Fill-7"></path>
                        <path d="M16.3231858,11.5715697 C15.7164027,11.5996468 15.1922522,11.1157198 15.1724336,10.4925189 C15.1454469,9.87821159 15.6069558,9.35362632 16.2234292,9.31506942 C16.8275575,9.28724989 17.3485619,9.76603868 17.3744204,10.3968181 C17.4064381,11.0079124 16.9286416,11.5436282 16.3231858,11.5715697" id="Fill-8"></path>
                        <path d="M12.8134912,7.8075409 C12.7896743,7.22695051 13.230742,6.72617181 13.8027876,6.69740327 C14.3759071,6.66581482 14.8610841,7.11815336 14.8892389,7.70239066 C14.915708,8.2827099 14.4675929,8.79372434 13.8994381,8.80711893 C13.3270088,8.83183384 12.8373066,8.38811772 12.8134912,7.8075409" id="Fill-9"></path>
                        <path d="M25.7720177,11.4528622 C25.8739248,12.1551834 25.3949469,12.8203983 24.6882876,12.9208984 C23.9895531,13.0206257 23.3236858,12.532862 23.2297566,11.816143 C23.1315929,11.0971057 23.6191327,10.4378695 24.3225265,10.3308755 C25.0173053,10.2315413 25.6670575,10.7181527 25.7720177,11.4528622" id="Fill-10"></path>
                        <path d="M22.6441858,9.54113701 C22.7368938,10.2021356 22.2858319,10.8237503 21.627677,10.9154246 C20.9701593,11.0138369 20.3485487,10.5571465 20.2605,9.88888117 C20.1662655,9.21169518 20.6305487,8.58877898 21.2883186,8.49306461 C21.9354027,8.39703841 22.544177,8.85905685 22.6441858,9.54113701" id="Fill-11"></path>
                        <path d="M19.5172566,7.63886126 C19.6020664,8.2584017 19.1820664,8.84158152 18.5699071,8.92601625 C17.9610265,9.0169449 17.381469,8.58202746 17.2968982,7.96517136 C17.2105619,7.32941641 17.6426549,6.76140718 18.2511637,6.66643845 C18.8574027,6.57576738 19.4274558,7.00889527 19.5172566,7.63886126" id="Fill-12"></path>
                        <path d="M14.3351283,6.03241884 C14.2495221,5.44698851 14.6507257,4.90515837 15.2196637,4.82903426 C15.7770133,4.74314891 16.3096726,5.14726423 16.3916283,5.722147 C16.4727743,6.30256114 16.0808097,6.84348293 15.5118717,6.91960704 C14.9501814,7.00183193 14.4094646,6.59716077 14.3351283,6.03241884" id="Fill-13"></path>
                        <path d="M16.6271681,2.97452079 C17.1793274,2.8333082 17.7564425,3.18539068 17.8952257,3.75471497 C18.027385,4.32469 17.6892611,4.91346899 17.125646,5.04627607 C16.5607832,5.1941724 15.9963717,4.83540618 15.8575885,4.26606834 C15.7222699,3.69096865 16.0750088,3.11574695 16.6271681,2.97452079" id="Fill-14"></path>
                        <path d="M21.7642035,4.93879398 C21.9114292,5.54134715 21.5422832,6.15494951 20.951177,6.29316595 C20.3643584,6.44866791 19.7582788,6.07218233 19.6228805,5.48210185 C19.4806858,4.8763356 19.8437788,4.25515473 20.4345133,4.11288467 C21.0174425,3.97274309 21.6172301,4.33895226 21.7642035,4.93879398" id="Fill-15"></path>
                        <path d="M25.6360619,6.11102393 C25.7925,6.75488613 25.409031,7.38623496 24.7838894,7.54549229 C24.1627035,7.70435646 23.5294912,7.30872801 23.3798628,6.68053802 C23.2348805,6.04509489 23.6174735,5.40429664 24.2320354,5.24606966 C24.8469956,5.09189631 25.4793186,5.47807534 25.6360619,6.11102393" id="Fill-16"></path>
                        <path d="M29.5032212,7.30413209 C29.6669735,7.96907585 29.2668451,8.63609388 28.616031,8.80603434 C27.9692389,8.96197014 27.2955,8.56076965 27.1476106,7.89428035 C26.9891416,7.22882142 27.3858717,6.55396728 28.0313363,6.39816706 C28.6804513,6.22429498 29.3447522,6.63867315 29.5032212,7.30413209" id="Fill-17"></path>
                        <path d="M33.3756372,8.48924145 C33.5422965,9.18521782 33.1240619,9.88669845 32.4439248,10.056788 C31.7669469,10.2320158 31.0703496,9.80037926 30.9095973,9.11062569 C30.7482212,8.41413414 31.162792,7.70210595 31.8402876,7.53227395 C32.5185398,7.37054919 33.2036814,7.79378026 33.3756372,8.48924145" id="Fill-18"></path>
                        <path d="M15.2044248,34.7825443 C15.2044248,33.3739487 14.0893805,32.227003 12.6969053,32.227003 C11.3283186,32.227003 10.2,33.3739487 10.2,34.7825443 C10.2,36.180305 11.3283186,37.3245392 12.6969053,37.3245392 C14.0893805,37.3245392 15.2044248,36.180305 15.2044248,34.7825443 M12.6969053,40.6718309 C9.51637168,40.6718309 6.94646018,38.047142 6.94646018,34.7825443 C6.94646018,31.5288033 9.51637168,28.8932686 12.6969053,28.8932686 C15.8933628,28.8932686 18.4685841,31.5274476 18.4685841,34.7825443 C18.4685841,38.047142 15.8933628,40.6718309 12.6969053,40.6718309" id="Fill-19"></path>
                        <path d="M0.511061947,29.2328784 C0.925221239,26.2665462 2.09734513,24.7766015 2.92699115,24.5745981 C7.76946903,23.4520555 16.2013274,22.8555354 19.6367257,22.6128601 L27.3716814,13.228513 C27.6252212,12.8177275 28.5384956,11.7887302 30.4075221,11.7887302 L36,11.7887302 L36,14.0555069 L30.4075221,14.0555069 C30.4075221,14.0555069 29.7876106,14.0216137 29.2977876,14.4893397 C29.0283186,14.7442166 28.8411504,15.1116188 28.3539823,15.9291226 L24.5561947,22.4433941 L35.1451327,22.4433941 L35.1451327,34.2422923 L20.6707965,34.2422923 C20.4119469,29.9527698 16.95,26.5309131 12.6756637,26.5309131 C8.40132743,26.5309131 4.93938053,29.9514141 4.68982301,34.2517824 L1.50929204,34.2517824 C0.67699115,34.2517824 0,33.5630727 0,32.7184543 L0.511061947,29.2328784 L0.511061947,29.2328784 Z" id="Fill-20"></path>
                    </g>
                </g>
            </g>
        </g>
    </g>
</svg>