<?xml version="1.0" encoding="UTF-8" standalone="no"?>
<svg width="209px" height="21px" viewBox="0 0 209 21" version="1.1" xmlns="http://www.w3.org/2000/svg" xmlns:xlink="http://www.w3.org/1999/xlink" xmlns:sketch="http://www.bohemiancoding.com/sketch/ns">
    <!-- Generator: Sketch Beta 3.3.2 (12041) - http://www.bohemiancoding.com/sketch -->
    <title>AUSSIE PARKING</title>
    <desc>Created with Sketch Beta.</desc>
    <defs></defs>
    <g id="Page-1" stroke="none" stroke-width="1" fill="none" fill-rule="evenodd" sketch:type="MSPage">
        <g id="aussieparking-logo" sketch:type="MSLayerGroup" fill="#FFC107">
            <path d="M3.03075266,20 L0.131771855,20 L8.22256375,1.34110534 L10.5944571,1.34110534 L18.6061859,20 L15.6544964,20 L13.7569817,15.4143394 L4.901913,15.4143394 L3.03075266,20 Z M5.82431599,13.1215092 L12.8082243,13.1215092 L9.32944733,4.371858 L5.82431599,13.1215092 Z M27.777507,20.4743787 C26.5476302,20.4743787 25.4758965,20.2679382 24.5622738,19.855051 C23.648651,19.4421637 22.8931666,18.8931198 22.2957979,18.2079028 C21.6984291,17.5226857 21.2548017,16.7364548 20.9649021,15.8491866 C20.6750026,14.9619183 20.530055,14.0439169 20.530055,13.0951548 L20.530055,1.34110534 L23.1391377,1.34110534 L23.1391377,12.9370286 C23.1391377,13.5695366 23.2182001,14.1976429 23.3763271,14.8213661 C23.5344541,15.4450893 23.7936028,16.0029179 24.153781,16.4948687 C24.5139592,16.9868194 24.9883332,17.382131 25.576917,17.6808154 C26.1655009,17.9794997 26.8990236,18.1288397 27.777507,18.1288397 C28.6384208,18.1288397 29.3675511,17.9794997 29.9649198,17.6808154 C30.5622885,17.382131 31.0410548,16.9868194 31.401233,16.4948687 C31.7614112,16.0029179 32.02056,15.4450893 32.178687,14.8213661 C32.336814,14.1976429 32.4158763,13.5695366 32.4158763,12.9370286 L32.4158763,1.34110534 L35.024959,1.34110534 L35.024959,13.0951548 C35.024959,14.0439169 34.8800115,14.9619183 34.5901119,15.8491866 C34.3002124,16.7364548 33.8565849,17.5226857 33.2592162,18.2079028 C32.6618475,18.8931198 31.906363,19.4421637 30.9927403,19.855051 C30.0791175,20.2679382 29.0073838,20.4743787 27.777507,20.4743787 L27.777507,20.4743787 Z M48.7028776,4.79352794 C48.3339146,4.28400755 47.8331865,3.86673418 47.2006784,3.54169532 C46.5681704,3.21665645 45.8566095,3.05413945 45.0659744,3.05413945 C44.6443024,3.05413945 44.2182443,3.11124002 43.7877874,3.22544286 C43.3573305,3.33964571 42.9664113,3.52412446 42.6150179,3.77888465 C42.2636245,4.03364485 41.9781217,4.34989414 41.7585008,4.72764201 C41.53888,5.10538988 41.4290712,5.55780206 41.4290712,6.08489212 C41.4290712,6.5944125 41.5300953,7.02047057 41.7321465,7.36307911 C41.9341977,7.70568764 42.2065234,7.99558283 42.549132,8.23277335 C42.8917405,8.46996388 43.2958368,8.67201203 43.761433,8.83892388 C44.2270292,9.00583574 44.7233649,9.17713743 45.250455,9.35283412 C45.8829631,9.54610047 46.5242463,9.76571803 47.1743241,10.0116934 C47.8244018,10.2576688 48.4129769,10.5827027 48.9400669,10.9868051 C49.467157,11.3909075 49.8976074,11.8960279 50.2314311,12.5021815 C50.5652548,13.108335 50.7321642,13.8769965 50.7321642,14.8081889 C50.7321642,15.7745207 50.5520778,16.6134598 50.1918996,17.3250313 C49.8317214,18.0366029 49.3529551,18.625178 48.7555863,19.0907742 C48.1582176,19.5563704 47.4686185,19.9033662 46.6867682,20.1317719 C45.904918,20.3601775 45.1011177,20.4743787 44.2753433,20.4743787 C43.0981755,20.4743787 41.9605565,20.2459764 40.8624522,19.789165 C39.7643479,19.3323537 38.8551312,18.6559316 38.1347748,17.7598785 L40.1640614,16.0468444 C40.6033031,16.6969221 41.1918782,17.2240042 41.9298042,17.6281066 C42.6677303,18.032209 43.4671383,18.2342571 44.328052,18.2342571 C44.7672937,18.2342571 45.2065288,18.1727642 45.6457706,18.0497765 C46.0850123,17.9267889 46.4847162,17.7335254 46.8448944,17.4699804 C47.2050726,17.2064354 47.4993602,16.877009 47.7277659,16.4816915 C47.9561716,16.0863739 48.0703727,15.6076076 48.0703727,15.0453783 C48.0703727,14.4831489 47.9517792,14.0131673 47.7145887,13.6354194 C47.4773982,13.2576715 47.1567565,12.9370299 46.7526541,12.6734849 C46.3485518,12.4099398 45.8785702,12.1859299 45.3426953,12.0014484 C44.8068204,11.8169669 44.2402071,11.6280958 43.6428384,11.4348294 C43.0454696,11.2591327 42.4568946,11.0439075 41.8770955,10.7891473 C41.2972964,10.5343871 40.778999,10.2093532 40.3221876,9.81403561 C39.8653762,9.41871807 39.4964187,8.93116708 39.215304,8.35136802 C38.9341893,7.77156896 38.7936341,7.05122336 38.7936341,6.1903096 C38.7936341,5.25911717 38.9825052,4.45970924 39.3602531,3.79206184 C39.738001,3.12441444 40.2299443,2.57097818 40.8360979,2.13173647 C41.4422514,1.69249475 42.1274582,1.37185311 42.8917388,1.16980193 C43.6560194,0.967750738 44.4246808,0.866726659 45.1977463,0.866726659 C46.2870657,0.866726659 47.3060912,1.05999011 48.2548533,1.44652282 C49.2036154,1.83305553 49.9678845,2.35135297 50.5476836,3.00143071 L48.7028776,4.79352794 Z M63.6985147,4.79352794 C63.3295517,4.28400755 62.8288236,3.86673418 62.1963155,3.54169532 C61.5638075,3.21665645 60.8522466,3.05413945 60.0616115,3.05413945 C59.6399394,3.05413945 59.2138814,3.11124002 58.7834245,3.22544286 C58.3529676,3.33964571 57.9620484,3.52412446 57.610655,3.77888465 C57.2592616,4.03364485 56.9737588,4.34989414 56.7541379,4.72764201 C56.5345171,5.10538988 56.4247083,5.55780206 56.4247083,6.08489212 C56.4247083,6.5944125 56.5257324,7.02047057 56.7277836,7.36307911 C56.9298347,7.70568764 57.2021605,7.99558283 57.5447691,8.23277335 C57.8873776,8.46996388 58.2914739,8.67201203 58.7570701,8.83892388 C59.2226663,9.00583574 59.719002,9.17713743 60.2460921,9.35283412 C60.8786002,9.54610047 61.5198834,9.76571803 62.1699612,10.0116934 C62.8200389,10.2576688 63.408614,10.5827027 63.935704,10.9868051 C64.4627941,11.3909075 64.8932445,11.8960279 65.2270682,12.5021815 C65.5608919,13.108335 65.7278013,13.8769965 65.7278013,14.8081889 C65.7278013,15.7745207 65.5477149,16.6134598 65.1875367,17.3250313 C64.8273584,18.0366029 64.3485922,18.625178 63.7512234,19.0907742 C63.1538547,19.5563704 62.4642556,19.9033662 61.6824053,20.1317719 C60.9005551,20.3601775 60.0967548,20.4743787 59.2709804,20.4743787 C58.0938126,20.4743787 56.9561936,20.2459764 55.8580893,19.789165 C54.759985,19.3323537 53.8507683,18.6559316 53.1304119,17.7598785 L55.1596985,16.0468444 C55.5989402,16.6969221 56.1875153,17.2240042 56.9254413,17.6281066 C57.6633674,18.032209 58.4627753,18.2342571 59.3236891,18.2342571 C59.7629308,18.2342571 60.2021659,18.1727642 60.6414077,18.0497765 C61.0806494,17.9267889 61.4803533,17.7335254 61.8405315,17.4699804 C62.2007097,17.2064354 62.4949973,16.877009 62.723403,16.4816915 C62.9518087,16.0863739 63.0660098,15.6076076 63.0660098,15.0453783 C63.0660098,14.4831489 62.9474163,14.0131673 62.7102258,13.6354194 C62.4730353,13.2576715 62.1523936,12.9370299 61.7482912,12.6734849 C61.3441889,12.4099398 60.8742073,12.1859299 60.3383324,12.0014484 C59.8024575,11.8169669 59.2358442,11.6280958 58.6384755,11.4348294 C58.0411067,11.2591327 57.4525317,11.0439075 56.8727326,10.7891473 C56.2929335,10.5343871 55.7746361,10.2093532 55.3178247,9.81403561 C54.8610133,9.41871807 54.4920558,8.93116708 54.2109411,8.35136802 C53.9298264,7.77156896 53.7892712,7.05122336 53.7892712,6.1903096 C53.7892712,5.25911717 53.9781423,4.45970924 54.3558902,3.79206184 C54.733638,3.12441444 55.2255814,2.57097818 55.8317349,2.13173647 C56.4378885,1.69249475 57.1230953,1.37185311 57.8873759,1.16980193 C58.6516565,0.967750738 59.4203179,0.866726659 60.1933833,0.866726659 C61.2827028,0.866726659 62.3017283,1.05999011 63.2504904,1.44652282 C64.1992525,1.83305553 64.9635216,2.35135297 65.5433207,3.00143071 L63.6985147,4.79352794 Z M72.0264959,20 L69.4174132,20 L69.4174132,1.34110534 L72.0264959,1.34110534 L72.0264959,20 Z M79.1685305,17.6808154 L88.9196477,17.6808154 L88.9196477,20 L76.5594477,20 L76.5594477,1.34110534 L88.5243322,1.34110534 L88.5243322,3.63393561 L79.1685305,3.63393561 L79.1685305,9.22106226 L87.9708904,9.22106226 L87.9708904,11.4611838 L79.1685305,11.4611838 L79.1685305,17.6808154 Z M98.9870174,1.34110534 L104.679562,1.34110534 C105.681033,1.34110534 106.594642,1.44212942 107.420416,1.6441806 C108.246191,1.84623179 108.948967,2.15808873 109.528766,2.57976077 C110.108565,3.00143282 110.556585,3.53729967 110.872839,4.1873774 C111.189093,4.83745514 111.347217,5.61929366 111.347217,6.53291642 C111.347217,7.46410885 111.175916,8.26351678 110.833307,8.93116418 C110.490699,9.59881159 110.016325,10.1434631 109.410171,10.5651352 C108.804018,10.9868072 108.083672,11.2986642 107.249113,11.5007154 C106.414554,11.7027665 105.514121,11.8037906 104.54779,11.8037906 L101.5961,11.8037906 L101.5961,20 L98.9870174,20 L98.9870174,1.34110534 Z M101.5961,9.59002346 L104.363309,9.59002346 C104.995817,9.59002346 105.58,9.53292289 106.115875,9.41872005 C106.65175,9.3045172 107.112947,9.12882315 107.499479,8.89163263 C107.886012,8.6544421 108.184692,8.34258516 108.395528,7.95605246 C108.606364,7.56951975 108.71178,7.09514582 108.71178,6.53291642 C108.71178,5.97068703 108.601972,5.50070545 108.382351,5.12295757 C108.16273,4.7452097 107.86405,4.43774511 107.486302,4.20055459 C107.108554,3.96336407 106.656142,3.79645472 106.129052,3.69982154 C105.601962,3.60318836 105.030956,3.5548725 104.416018,3.5548725 L101.5961,3.5548725 L101.5961,9.59002346 Z M113.850883,20 L110.951902,20 L119.042694,1.34110534 L121.414587,1.34110534 L129.426316,20 L126.474626,20 L124.577112,15.4143394 L115.722043,15.4143394 L113.850883,20 Z M116.644446,13.1215092 L123.628354,13.1215092 L120.149577,4.371858 L116.644446,13.1215092 Z M134.433646,20 L131.824564,20 L131.824564,1.34110534 L137.807006,1.34110534 C138.703059,1.34110534 139.555175,1.43334471 140.36338,1.61782623 C141.171585,1.80230775 141.878753,2.09659529 142.484907,2.50069766 C143.09106,2.90480004 143.569827,3.43627454 143.92122,4.09513711 C144.272613,4.75399968 144.448307,5.55779995 144.448307,6.50656205 C144.448307,7.8769962 144.026642,8.98386871 143.183298,9.8272128 C142.339954,10.6705569 141.25065,11.2064237 139.915356,11.4348294 L145.133521,20 L141.970997,20 L137.22721,11.6983731 L134.433646,11.6983731 L134.433646,20 Z M134.433646,9.51096034 L137.438045,9.51096034 C138.052983,9.51096034 138.623989,9.45825213 139.151079,9.35283412 C139.678169,9.24741611 140.139366,9.07611441 140.534683,8.83892388 C140.930001,8.60173336 141.241858,8.29426877 141.470263,7.9165209 C141.698669,7.53877303 141.81287,7.06879144 141.81287,6.50656205 C141.81287,5.94433266 141.698669,5.47435108 141.470263,5.0966032 C141.241858,4.71885533 140.938786,4.4157831 140.561038,4.1873774 C140.18329,3.95897171 139.739662,3.79645472 139.230142,3.69982154 C138.720622,3.60318836 138.184755,3.5548725 137.622525,3.5548725 L134.433646,3.5548725 L134.433646,9.51096034 Z M150.61523,9.56366909 L150.667939,9.56366909 L158.99592,1.34110534 L162.606469,1.34110534 L153.540565,9.87992154 L163.159911,20 L159.41759,20 L150.667939,10.3543002 L150.61523,10.3543002 L150.61523,20 L148.006147,20 L148.006147,1.34110534 L150.61523,1.34110534 L150.61523,9.56366909 Z M167.982761,20 L165.373678,20 L165.373678,1.34110534 L167.982761,1.34110534 L167.982761,20 Z M185.666544,16.2576793 L185.719252,16.2576793 L185.719252,1.34110534 L188.328335,1.34110534 L188.328335,20 L185.034039,20 L175.177504,4.76717357 L175.124795,4.76717357 L175.124795,20 L172.515713,20 L172.515713,1.34110534 L175.915426,1.34110534 L185.666544,16.2576793 Z M206.934521,5.1888435 C206.372292,4.5739051 205.656338,4.08196177 204.78664,3.71299873 C203.916941,3.34403569 202.946232,3.15955694 201.874482,3.15955694 C200.785162,3.15955694 199.801276,3.35721274 198.922792,3.75253028 C198.044309,4.14784782 197.297609,4.68810703 196.682671,5.3733241 C196.067732,6.05854117 195.593358,6.85355675 195.259535,7.75839467 C194.925711,8.6632326 194.758802,9.62515752 194.758802,10.6441983 C194.758802,11.6808087 194.925711,12.6559107 195.259535,13.5695335 C195.593358,14.4831562 196.067732,15.2781718 196.682671,15.9546041 C197.297609,16.6310363 198.053094,17.1625108 198.949147,17.5490435 C199.8452,17.9355762 200.846656,18.1288397 201.953545,18.1288397 C202.832028,18.1288397 203.640221,18.0497773 204.378147,17.8916503 C205.116073,17.7335233 205.757356,17.505121 206.302016,17.2064367 L206.302016,12.0146256 L202.16438,12.0146256 L202.16438,9.80085843 L208.884744,9.80085843 L208.884744,18.8404077 C207.900843,19.3674977 206.829109,19.771594 205.669511,20.0527087 C204.509913,20.3338234 203.244916,20.4743787 201.874482,20.4743787 C200.416199,20.4743787 199.076532,20.2327994 197.85544,19.7496335 C196.634348,19.2664676 195.584576,18.5900455 194.706093,17.7203469 C193.827609,16.8506483 193.142403,15.8140534 192.650452,14.6105311 C192.158501,13.4070088 191.91253,12.0849111 191.91253,10.6441983 C191.91253,9.18591581 192.162894,7.85503339 192.663629,6.65151109 C193.164365,5.4479888 193.858356,4.42017861 194.745624,3.56804969 C195.632893,2.71592076 196.682665,2.05267573 197.894972,1.57829468 C199.107279,1.10391363 200.424984,0.866726659 201.848127,0.866726659 C203.341549,0.866726659 204.672432,1.08634422 205.840815,1.52558593 C207.009198,1.96482765 207.979907,2.55340271 208.752973,3.29132879 L206.934521,5.1888435 Z" id="AUSSIE-PARKING" sketch:type="MSShapeGroup"></path>
        </g>
    </g>
</svg>