<?xml version="1.0" encoding="UTF-8" standalone="no"?>
<svg width="19px" height="19px" viewBox="0 0 19 19" version="1.1" xmlns="http://www.w3.org/2000/svg" xmlns:xlink="http://www.w3.org/1999/xlink" xmlns:sketch="http://www.bohemiancoding.com/sketch/ns">
    <!-- Generator: Sketch 3.2.2 (9983) - http://www.bohemiancoding.com/sketch -->
    <title>Crop</title>
    <desc>Created with Sketch.</desc>
    <defs></defs>
    <g id="Backend" stroke="none" stroke-width="1" fill="none" fill-rule="evenodd" sketch:type="MSPage">
        <g id="Pages-(Edit)" sketch:type="MSArtboardGroup" transform="translate(-222.000000, -599.000000)">
            <g id="Item-1" sketch:type="MSLayerGroup" transform="translate(24.000000, 344.000000)">
                <g id="image" transform="translate(136.000000, 72.000000)" sketch:type="MSShapeGroup">
                    <g id="Buttons" transform="translate(11.000000, 180.000000)">
                        <g id="Crop" transform="translate(48.000000, 0.000000)">
                            <path d="M0.999,24 L0.999,0 L24.999,0 L24.999,24 L0.999,24 Z" id="bounds-3" transform="translate(12.999000, 12.000000) scale(1, -1) translate(-12.999000, -12.000000) "></path>
                            <path d="M10,10 L10,15 L15,15 L15,10 L10,10 Z M10,6 L10,3 L6,3 L6,6 L3,6 L3,10 L6,10 L6,17 L6,19 L15,19 L15,22 L19,22 L19,19 L22,19 L22,15 L19,15 L19,8 L19,6 L10,6 Z" opacity="0.54" fill-opacity="0.540000021" fill="#000000"></path>
                        </g>
                    </g>
                </g>
            </g>
        </g>
    </g>
</svg>