<?xml version="1.0" encoding="UTF-8" standalone="no"?>
<svg width="18px" height="20px" viewBox="0 0 18 20" version="1.1" xmlns="http://www.w3.org/2000/svg" xmlns:xlink="http://www.w3.org/1999/xlink" xmlns:sketch="http://www.bohemiancoding.com/sketch/ns">
    <!-- Generator: Sketch 3.2.2 (9983) - http://www.bohemiancoding.com/sketch -->
    <title>Shape</title>
    <desc>Created with Sketch.</desc>
    <defs></defs>
    <g id="Backend" stroke="none" stroke-width="1" fill="none" fill-rule="evenodd" sketch:type="MSPage">
        <g id="Dashboard" sketch:type="MSArtboardGroup" transform="translate(-443.000000, -136.000000)" fill-opacity="0.540000021" fill="#000000">
            <g id="Entry-Details-(for-Calling-List)" sketch:type="MSLayerGroup" transform="translate(416.000000, 0.000000)">
                <g id="Payment-TYpe-2" transform="translate(0.000000, 120.000000)" sketch:type="MSShapeGroup">
                    <g id="Days-Booked" transform="translate(27.000000, 13.000000)">
                        <path d="M14,14 L9,14 L9,19 L14,19 L14,14 L14,14 Z M13,3 L13,5 L5,5 L5,3 L3,3 L3,5 L2,5 C0.89,5 0.01,5.9 0.01,7 L0,21 C0,22.1 0.89,23 2,23 L16,23 C17.1,23 18,22.1 18,21 L18,7 C18,5.9 17.1,5 16,5 L15,5 L15,3 L13,3 L13,3 Z M16,21 L2,21 L2,10 L16,10 L16,21 L16,21 Z" id="Shape"></path>
                    </g>
                </g>
            </g>
        </g>
    </g>
</svg>