<?xml version="1.0" encoding="UTF-8" standalone="no"?>
<svg width="11px" height="20px" viewBox="0 0 11 20" version="1.1" xmlns="http://www.w3.org/2000/svg" xmlns:xlink="http://www.w3.org/1999/xlink" xmlns:sketch="http://www.bohemiancoding.com/sketch/ns">
    <!-- Generator: Sketch 3.2.2 (9983) - http://www.bohemiancoding.com/sketch -->
    <title>$</title>
    <desc>Created with Sketch.</desc>
    <defs></defs>
    <g id="Backend" stroke="none" stroke-width="1" fill="none" fill-rule="evenodd" sketch:type="MSPage">
        <g id="Dashboard" sketch:type="MSArtboardGroup" transform="translate(-822.000000, -136.000000)" fill-opacity="0.540000021" fill="#000000">
            <g id="Entry-Details-(for-Calling-List)" sketch:type="MSLayerGroup" transform="translate(416.000000, 0.000000)">
                <g id="Payment-TYpe-2" transform="translate(0.000000, 120.000000)" sketch:type="MSShapeGroup">
                    <g id="Amount" transform="translate(407.000000, 13.000000)">
                        <path d="M6.421875,16.2304688 C6.421875,15.9635403 6.39095083,15.7324229 6.32910156,15.5371094 C6.26725229,15.3417959 6.16959702,15.167644 6.03613281,15.0146484 C5.9026686,14.8616529 5.7285167,14.7200527 5.51367188,14.5898438 C5.29882705,14.4596348 5.03841299,14.3294277 4.73242188,14.1992188 C4.0878874,13.9388008 3.49544541,13.6751315 2.95507812,13.4082031 C2.41471084,13.1412747 1.9492207,12.8352882 1.55859375,12.4902344 C1.1679668,12.1451806 0.865235449,11.7382836 0.650390625,11.2695312 C0.435545801,10.8007789 0.328125,10.2343783 0.328125,9.5703125 C0.328125,9.01692432 0.425780273,8.50911689 0.62109375,8.046875 C0.816407227,7.58463311 1.09309717,7.1826189 1.45117188,6.84082031 C1.80924658,6.49902173 2.23892979,6.22233179 2.74023438,6.01074219 C3.24153896,5.79915259 3.79817402,5.66406279 4.41015625,5.60546875 L4.41015625,3.54492188 L5.96289062,3.54492188 L5.96289062,5.64453125 C6.53581016,5.72916709 7.05826587,5.89192588 7.53027344,6.1328125 C8.00228101,6.37369912 8.4059228,6.68782358 8.74121094,7.07519531 C9.07649907,7.46256704 9.33528555,7.91666406 9.51757812,8.4375 C9.6998707,8.95833594 9.79101562,9.53775723 9.79101562,10.1757812 L6.49023438,10.1757812 C6.49023438,9.80468564 6.45279985,9.48567842 6.37792969,9.21875 C6.30305952,8.95182158 6.19726631,8.73209722 6.06054688,8.55957031 C5.92382744,8.38704341 5.76432383,8.26171914 5.58203125,8.18359375 C5.39973867,8.10546836 5.20117295,8.06640625 4.98632812,8.06640625 C4.7454415,8.06640625 4.53873784,8.10709595 4.36621094,8.18847656 C4.19368403,8.26985718 4.05371147,8.37890557 3.94628906,8.515625 C3.83886665,8.65234443 3.75911484,8.81347563 3.70703125,8.99902344 C3.65494766,9.18457124 3.62890625,9.38150938 3.62890625,9.58984375 C3.62890625,9.81119902 3.65494766,10.0097647 3.70703125,10.1855469 C3.75911484,10.361329 3.85025977,10.5240878 3.98046875,10.6738281 C4.11067773,10.8235685 4.28482964,10.9684238 4.50292969,11.1083984 C4.72102974,11.2483731 4.99283691,11.3899732 5.31835938,11.5332031 C5.94987295,11.8001315 6.534177,12.0719387 7.07128906,12.3486328 C7.60840112,12.6253269 8.07226367,12.9394514 8.46289062,13.2910156 C8.85351758,13.6425799 9.1595041,14.052732 9.38085938,14.5214844 C9.60221465,14.9902367 9.71289062,15.5533821 9.71289062,16.2109375 C9.71289062,16.7903675 9.61849053,17.309568 9.4296875,17.7685547 C9.24088447,18.2275414 8.97396006,18.6246728 8.62890625,18.9599609 C8.28385244,19.2952491 7.86881753,19.5654287 7.38378906,19.7705078 C6.8987606,19.975587 6.360029,20.1074216 5.76757812,20.1660156 L5.76757812,22.1289062 L4.21484375,22.1289062 L4.21484375,20.15625 C3.65494512,20.097656 3.10970317,19.9707041 2.57910156,19.7753906 C2.04849995,19.5800771 1.57812705,19.2936217 1.16796875,18.9160156 C0.757810449,18.5384096 0.429037695,18.0647815 0.181640625,17.4951172 C-0.0657564453,16.9254529 -0.189453125,16.2402384 -0.189453125,15.4394531 L3.1015625,15.4394531 C3.1015625,15.8756532 3.15364531,16.2386053 3.2578125,16.5283203 C3.36197969,16.8180353 3.50195225,17.0507804 3.67773438,17.2265625 C3.8535165,17.4023446 4.0553374,17.5276689 4.28320312,17.6025391 C4.51106885,17.6774092 4.74869668,17.7148438 4.99609375,17.7148438 C5.24349082,17.7148438 5.45670483,17.6757816 5.63574219,17.5976562 C5.81477954,17.5195309 5.96289004,17.4137376 6.08007812,17.2802734 C6.19726621,17.1468092 6.28352837,16.9905608 6.33886719,16.8115234 C6.39420601,16.6324861 6.421875,16.4388031 6.421875,16.2304688 L6.421875,16.2304688 Z" id="$"></path>
                    </g>
                </g>
            </g>
        </g>
    </g>
</svg>