<?xml version="1.0" encoding="UTF-8" standalone="no"?>
<svg width="22px" height="20px" viewBox="0 0 22 20" version="1.1" xmlns="http://www.w3.org/2000/svg" xmlns:xlink="http://www.w3.org/1999/xlink" xmlns:sketch="http://www.bohemiancoding.com/sketch/ns">
    <!-- Generator: Sketch 3.2.2 (9983) - http://www.bohemiancoding.com/sketch -->
    <title>Help</title>
    <desc>Created with Sketch.</desc>
    <defs></defs>
    <g id="Backend" stroke="none" stroke-width="1" fill="none" fill-rule="evenodd" sketch:type="MSPage">
        <g id="Dashboard" sketch:type="MSArtboardGroup" transform="translate(-941.000000, -20.000000)" fill="#FFFFFF">
            <g id="Top-Menu-Bar-2" sketch:type="MSLayerGroup" transform="translate(32.000000, 18.000000)">
                <g id="Icon-Buttons" transform="translate(646.000000, 0.000000)" sketch:type="MSShapeGroup">
                    <g id="Help" transform="translate(264.000000, 3.000000)">
                        <path d="M15.25,-0.0932667397 L20.5,9 L15.25,18.0932667 L4.75,18.0932667 L-0.5,9 L4.75,-0.0932667397 L15.25,-0.0932667397 Z M8.11145936,12.0826237 C8.11145936,11.67289 8.13163534,11.3004104 8.1719879,10.9651738 C8.21234046,10.6299371 8.28218039,10.3210894 8.38150977,10.0386215 C8.48083916,9.75615357 8.61431101,9.49541785 8.78192935,9.25640652 C8.94954768,9.01739519 9.16061946,8.78925144 9.415151,8.57196841 C9.84971705,8.2118994 10.1927087,7.86735577 10.4441362,7.53832718 C10.6955637,7.2092986 10.8212756,6.84923499 10.8212756,6.45812554 C10.8212756,5.9738948 10.7203957,5.61848718 10.5186329,5.39189202 C10.31687,5.16529687 10.0142304,5.05200099 9.61070475,5.05200099 C9.4492945,5.05200099 9.29409466,5.08148896 9.14510059,5.14046578 C8.99610651,5.1994426 8.86418666,5.2894585 8.74933706,5.41051619 C8.63448746,5.53157387 8.53981556,5.68832571 8.46531852,5.88077639 C8.39082148,6.07322707 8.35046953,6.30292282 8.34426144,6.56987054 L5.19677734,6.56987054 C5.20298543,5.87456485 5.3224893,5.27859749 5.55529254,4.78195058 C5.78809579,4.28530366 6.10159945,3.8771281 6.49581294,3.55741165 C6.89002643,3.23769519 7.35407393,3.00334345 7.88796937,2.85434937 C8.4218648,2.7053553 8.99610419,2.63085938 9.61070475,2.63085938 C10.2873862,2.63085938 10.8957695,2.71001129 11.435873,2.86831749 C11.9759766,3.0266237 12.4338161,3.26097545 12.8094053,3.57137977 C13.1849945,3.88178409 13.4721142,4.26667968 13.670773,4.72607808 C13.8694318,5.18547648 13.9687596,5.71625991 13.9687596,6.31844429 C13.9687596,6.72196991 13.9113357,7.08203353 13.7964861,7.39864594 C13.6816365,7.71525835 13.5233327,8.01013803 13.3215699,8.28329383 C13.1198071,8.55644964 12.8823513,8.82184135 12.6091955,9.07947694 C12.3360397,9.33711253 12.044264,9.60871224 11.7338597,9.89428421 C11.5538252,10.0556945 11.4032814,10.2139983 11.2822237,10.3692005 C11.161166,10.5244026 11.0649421,10.6873624 10.9935491,10.8580848 C10.9221561,11.0288072 10.8693882,11.215047 10.8352437,11.4168098 C10.8010992,11.6185726 10.7809232,11.8405084 10.7747151,12.0826237 L8.11145936,12.0826237 Z M7.72966395,14.913497 C7.72966395,14.6900059 7.77156791,14.4820381 7.85537708,14.2895875 C7.93918624,14.0971368 8.05869012,13.9310729 8.21389228,13.791391 C8.36909444,13.6517091 8.55223024,13.5415172 8.76330518,13.4608121 C8.97438012,13.3801069 9.21028387,13.339755 9.4710235,13.339755 C9.73176313,13.339755 9.96766688,13.3801069 10.1787418,13.4608121 C10.3898168,13.5415172 10.5729526,13.6517091 10.7281547,13.791391 C10.8833569,13.9310729 11.0028608,14.0971368 11.0866699,14.2895875 C11.1704791,14.4820381 11.212383,14.6900059 11.212383,14.913497 C11.212383,15.1369881 11.1704791,15.3449559 11.0866699,15.5374066 C11.0028608,15.7298573 10.8833569,15.8959211 10.7281547,16.035603 C10.5729526,16.175285 10.3898168,16.2854769 10.1787418,16.366182 C9.96766688,16.4468871 9.73176313,16.4872391 9.4710235,16.4872391 C9.21028387,16.4872391 8.97438012,16.4468871 8.76330518,16.366182 C8.55223024,16.2854769 8.36909444,16.175285 8.21389228,16.035603 C8.05869012,15.8959211 7.93918624,15.7298573 7.85537708,15.5374066 C7.77156791,15.3449559 7.72966395,15.1369881 7.72966395,14.913497 Z" id="Polygon-1"></path>
                    </g>
                </g>
            </g>
        </g>
    </g>
</svg>