<?xml version="1.0" encoding="UTF-8" standalone="no"?>
<svg width="20px" height="16px" viewBox="0 0 20 16" version="1.1" xmlns="http://www.w3.org/2000/svg" xmlns:xlink="http://www.w3.org/1999/xlink" xmlns:sketch="http://www.bohemiancoding.com/sketch/ns">
    <!-- Generator: Sketch 3.2.2 (9983) - http://www.bohemiancoding.com/sketch -->
    <title>Shape</title>
    <desc>Created with Sketch.</desc>
    <defs></defs>
    <g id="Backend" stroke="none" stroke-width="1" fill="none" fill-rule="evenodd" sketch:type="MSPage">
        <g id="Dashboard" sketch:type="MSArtboardGroup" transform="translate(-722.000000, -796.000000)" fill-opacity="0.540000021" fill="#000000">
            <g id="Entry-Details-(for-Calling-List)" sketch:type="MSLayerGroup" transform="translate(416.000000, 0.000000)">
                <g id="Pricing-Breakdown-Unfold" transform="translate(0.000000, 452.000000)" sketch:type="MSShapeGroup">
                    <g id="Customer-Info-2" transform="translate(24.000000, 235.000000)">
                        <g id="Email" transform="translate(282.000000, 101.000000)">
                            <path d="M18,8 L2,8 C0.9,8 0.01,8.9 0.01,10 L0,22 C0,23.1 0.9,24 2,24 L18,24 C19.1,24 20,23.1 20,22 L20,10 C20,8.9 19.1,8 18,8 L18,8 Z M18,12 L10,17 L2,12 L2,10 L10,15 L18,10 L18,12 L18,12 Z" id="Shape"></path>
                        </g>
                    </g>
                </g>
            </g>
        </g>
    </g>
</svg>