<?xml version="1.0" encoding="UTF-8" standalone="no"?>
<svg width="4px" height="16px" viewBox="0 0 4 16" version="1.1" xmlns="http://www.w3.org/2000/svg" xmlns:xlink="http://www.w3.org/1999/xlink" xmlns:sketch="http://www.bohemiancoding.com/sketch/ns">
    <!-- Generator: Sketch 3.2.2 (9983) - http://www.bohemiancoding.com/sketch -->
    <title>… more</title>
    <desc>Created with Sketch.</desc>
    <defs></defs>
    <g id="Backend" stroke="none" stroke-width="1" fill="none" fill-rule="evenodd" sketch:type="MSPage">
        <g id="Dashboard" sketch:type="MSArtboardGroup" transform="translate(-998.000000, -22.000000)">
            <g id="Top-Menu-Bar-2" sketch:type="MSLayerGroup" transform="translate(32.000000, 18.000000)">
                <g id="Icon-Buttons" transform="translate(646.000000, 0.000000)" sketch:type="MSShapeGroup">
                    <g id="…-more" transform="translate(324.000000, 12.000000) scale(1, -1) translate(-324.000000, -12.000000) translate(318.000000, 0.000000)">
                        <path d="M4,16 C5.1,16 6,16.9 6,18 C6,19.1 5.1,20 4,20 C2.9,20 2,19.1 2,18 C2,16.9 2.9,16 4,16 L4,16 Z M4,14 C2.9,14 2,13.1 2,12 C2,10.9 2.9,10 4,10 C5.1,10 6,10.9 6,12 C6,13.1 5.1,14 4,14 L4,14 Z M4,8 C2.9,8 2,7.1 2,6 C2,4.9 2.9,4 4,4 C5.1,4 6,4.9 6,6 C6,7.1 5.1,8 4,8 L4,8 Z" id="Shape" fill="#FFFFFF"></path>
                        <path d="M12,0 L0,0 L0,24 L12,24 L12,0 Z" id="bounds"></path>
                    </g>
                </g>
            </g>
        </g>
    </g>
</svg>