<?xml version="1.0" encoding="UTF-8" standalone="no"?>
<svg width="22px" height="14px" viewBox="0 0 22 14" version="1.1" xmlns="http://www.w3.org/2000/svg" xmlns:xlink="http://www.w3.org/1999/xlink" xmlns:sketch="http://www.bohemiancoding.com/sketch/ns">
    <!-- Generator: Sketch 3.2.2 (9983) - http://www.bohemiancoding.com/sketch -->
    <title>Shape</title>
    <desc>Created with Sketch.</desc>
    <defs></defs>
    <g id="Backend" stroke="none" stroke-width="1" fill="none" fill-rule="evenodd" sketch:type="MSPage">
        <g id="Dashboard" sketch:type="MSArtboardGroup" transform="translate(-601.000000, -420.000000)" fill-opacity="0.540000021" fill="#000000">
            <g id="Entry-Details-(for-Calling-List)" sketch:type="MSLayerGroup" transform="translate(416.000000, 0.000000)">
                <g id="Booking/Editing-Dialogue" transform="translate(0.000000, 271.000000)" sketch:type="MSShapeGroup">
                    <g id="Booking-Details">
                        <g id="People" transform="translate(185.000000, 124.000000)">
                            <path d="M15,31 C16.66,31 17.99,29.66 17.99,28 C17.99,26.34 16.66,25 15,25 C13.34,25 12,26.34 12,28 C12,29.66 13.34,31 15,31 L15,31 Z M7,31 C8.66,31 9.99,29.66 9.99,28 C9.99,26.34 8.66,25 7,25 C5.34,25 4,26.34 4,28 C4,29.66 5.34,31 7,31 L7,31 Z M7,33 C4.67,33 0,34.17 0,36.5 L0,39 L14,39 L14,36.5 C14,34.17 9.33,33 7,33 L7,33 Z M15,33 C14.71,33 14.38,33.02 14.03,33.05 C15.19,33.89 16,35.02 16,36.5 L16,39 L22,39 L22,36.5 C22,34.17 17.33,33 15,33 L15,33 Z" id="Shape"></path>
                        </g>
                    </g>
                </g>
            </g>
        </g>
    </g>
</svg>