<?xml version="1.0" encoding="UTF-8" standalone="no"?>
<svg width="15px" height="23px" viewBox="0 0 15 23" version="1.1" xmlns="http://www.w3.org/2000/svg" xmlns:xlink="http://www.w3.org/1999/xlink" xmlns:sketch="http://www.bohemiancoding.com/sketch/ns">
    <!-- Generator: Sketch 3.2.2 (9983) - http://www.bohemiancoding.com/sketch -->
    <title>Shape</title>
    <desc>Created with Sketch.</desc>
    <defs></defs>
    <g id="Backend" stroke="none" stroke-width="1" fill="none" fill-rule="evenodd" sketch:type="MSPage">
        <g id="Dashboard" sketch:type="MSArtboardGroup" transform="translate(-444.000000, -857.000000)" fill-opacity="0.540000021" fill="#000000">
            <g id="Entry-Details-(for-Calling-List)" sketch:type="MSLayerGroup" transform="translate(416.000000, 0.000000)">
                <g id="Pricing-Breakdown-Unfold" transform="translate(0.000000, 452.000000)" sketch:type="MSShapeGroup">
                    <g id="Customer-Info-2" transform="translate(24.000000, 235.000000)">
                        <g id="Address" transform="translate(4.000000, 165.000000)">
                            <path d="M7.5,5 C3.35357143,5 0,8.5995 0,13.05 C0,19.0875 7.5,28 7.5,28 C7.5,28 15,19.0875 15,13.05 C15,8.5995 11.6464286,5 7.5,5 L7.5,5 Z M7.5,15.925 C6.02142857,15.925 4.82142857,14.637 4.82142857,13.05 C4.82142857,11.463 6.02142857,10.175 7.5,10.175 C8.97857143,10.175 10.1785714,11.463 10.1785714,13.05 C10.1785714,14.637 8.97857143,15.925 7.5,15.925 L7.5,15.925 Z" id="Shape"></path>
                        </g>
                    </g>
                </g>
            </g>
        </g>
    </g>
</svg>