<?xml version="1.0" encoding="UTF-8" standalone="no"?>
<svg width="20px" height="20px" viewBox="0 0 20 20" version="1.1" xmlns="http://www.w3.org/2000/svg" xmlns:xlink="http://www.w3.org/1999/xlink" xmlns:sketch="http://www.bohemiancoding.com/sketch/ns">
    <!-- Generator: Sketch 3.2.2 (9983) - http://www.bohemiancoding.com/sketch -->
    <title>Shape 2</title>
    <desc>Created with Sketch.</desc>
    <defs></defs>
    <g id="Backend" stroke="none" stroke-width="1" fill="none" fill-rule="evenodd" sketch:type="MSPage">
        <g id="Dashboard" sketch:type="MSArtboardGroup" transform="translate(-442.000000, -794.000000)" fill-opacity="0.540000021" fill="#000000">
            <g id="Entry-Details-(for-Calling-List)" sketch:type="MSLayerGroup" transform="translate(416.000000, 0.000000)">
                <g id="Pricing-Breakdown-Unfold" transform="translate(0.000000, 452.000000)" sketch:type="MSShapeGroup">
                    <g id="Customer-Info-2" transform="translate(24.000000, 235.000000)">
                        <g id="Phone" transform="translate(2.000000, 99.000000)">
                            <path d="M4.02777778,16.6611111 C5.62777778,19.8055556 8.2,22.3777778 11.35,23.9777778 L13.7944444,21.5277778 C14.1,21.2222222 14.5388889,21.1333333 14.9222222,21.2555556 C16.1666667,21.6666667 17.5055556,21.8888889 18.8888889,21.8888889 C19.5055556,21.8888889 20,22.3833333 20,23 L20,26.8888889 C20,27.5055556 19.5055556,28 18.8888889,28 C8.45555556,28 0,19.5444444 0,9.11111111 C0,8.49444444 0.5,8 1.11111111,8 L5,8 C5.61666667,8 6.11111111,8.49444444 6.11111111,9.11111111 C6.11111111,10.4944444 6.33333333,11.8333333 6.74444444,13.0777778 C6.86666667,13.4611111 6.77777778,13.9 6.47222222,14.2055556 L4.02777778,16.6611111 L4.02777778,16.6611111 Z" id="Shape-2"></path>
                        </g>
                    </g>
                </g>
            </g>
        </g>
    </g>
</svg>